HIERARCHY
ROOT root
{
	OFFSET	0	13.1	24.9
	CHANNELS 6  Xposition Yposition Zposition Xrotation Yrotation Zrotation
	JOINT spine_1
	{
		OFFSET	0	9.99999	0
		CHANNELS 3  Xrotation Yrotation Zrotation
		JOINT spine_2
		{
			OFFSET	0	112	-10
			CHANNELS 3  Xrotation Yrotation Zrotation
			JOINT spine_3
			{
				OFFSET	0	206.5	19.3
				CHANNELS 3  Xrotation Yrotation Zrotation
				JOINT spine_4
				{
					OFFSET	0	110.4	14.6
					CHANNELS 3  Xrotation Yrotation Zrotation
					JOINT neck_1
					{
						OFFSET	0	71.8	-50.3
						CHANNELS 3  Xrotation Yrotation Zrotation
						JOINT neck_2
						{
							OFFSET	0	86.2	-25.8
							CHANNELS 3  Xrotation Yrotation Zrotation
							JOINT head_ee
							{
								OFFSET	0	179.8	-8.7
								CHANNELS 3  Xrotation Yrotation Zrotation
								End Site
								{
									OFFSET	1	0	0
								}
							}
						}
					}
					JOINT left_clavicle
					{
						OFFSET	-43.2	22.4	-70.8
						CHANNELS 3  Xrotation Yrotation Zrotation
						JOINT left_shoulder
						{
							OFFSET	-93.9	-5.79999	48.7
							CHANNELS 3  Xrotation Yrotation Zrotation
							JOINT left_elbow
							{
								OFFSET	-291.4	-30.8	15.2
								CHANNELS 3  Xrotation Yrotation Zrotation
								JOINT left_lowarm_twist
								{
									OFFSET	-110.7	-3.89999	13.6
									CHANNELS 3  Xrotation Yrotation Zrotation
									JOINT left_hand
									{
										OFFSET	-110.7	-3.89999	13.6
										CHANNELS 3  Xrotation Yrotation Zrotation
										JOINT left_ee
										{
											OFFSET	-80.8	-5.10001	12.1
											CHANNELS 3  Xrotation Yrotation Zrotation
											End Site
											{
												OFFSET	1	0	0
											}
										}
									}
								}
							}
						}
					}
					JOINT right_clavicle
					{
						OFFSET	43.2	22.4	-70.8
						CHANNELS 3  Xrotation Yrotation Zrotation
						JOINT right_shoulder
						{
							OFFSET	93.9	-5.79999	48.7
							CHANNELS 3  Xrotation Yrotation Zrotation
							JOINT right_elbow
							{
								OFFSET	291.4	-30.8	15.2
								CHANNELS 3  Xrotation Yrotation Zrotation
								JOINT right_lowarm_twist
								{
									OFFSET	110.7	-3.89999	13.6
									CHANNELS 3  Xrotation Yrotation Zrotation
									JOINT right_hand
									{
										OFFSET	110.7	-3.89999	13.6
										CHANNELS 3  Xrotation Yrotation Zrotation
										JOINT right_ee
										{
											OFFSET	80.8	-5.10001	12.1
											CHANNELS 3  Xrotation Yrotation Zrotation
											End Site
											{
												OFFSET	1	0	0
											}
										}
									}
								}
							}
						}
					}
				}
			}
		}
	}
	JOINT left_hip
	{
		OFFSET	-82.8	-127.5	0.300001
		CHANNELS 3  Xrotation Yrotation Zrotation
		JOINT left_knee
		{
			OFFSET	-28.2	-396.7	2.2
			CHANNELS 3  Xrotation Yrotation Zrotation
			JOINT left_ankle
			{
				OFFSET	-11.7	-411.3	35.4
				CHANNELS 3  Xrotation Yrotation Zrotation
				JOINT left_toes
				{
					OFFSET	0	-60	-88.6
					CHANNELS 3  Xrotation Yrotation Zrotation
					JOINT left_foot_ee
					{
						OFFSET	-22.5	-16.5	-42.2
						CHANNELS 3  Xrotation Yrotation Zrotation
						End Site
						{
							OFFSET	1	0	0
						}
					}
				}
			}
		}
	}
	JOINT right_hip
	{
		OFFSET	82.8	-127.5	0.300001
		CHANNELS 3  Xrotation Yrotation Zrotation
		JOINT right_knee
		{
			OFFSET	28.2	-396.7	2.2
			CHANNELS 3  Xrotation Yrotation Zrotation
			JOINT right_ankle
			{
				OFFSET	11.7	-411.3	35.4
				CHANNELS 3  Xrotation Yrotation Zrotation
				JOINT right_toes
				{
					OFFSET	0	-60	-88.6
					CHANNELS 3  Xrotation Yrotation Zrotation
					JOINT right_foot_ee
					{
						OFFSET	22.5	-16.5	-42.2
						CHANNELS 3  Xrotation Yrotation Zrotation
						End Site
						{
							OFFSET	1	0	0
						}
					}
				}
			}
		}
	}
}
MOTION
Frames: 8
Frame Time: 0.02
3287.9 704.498 -610.852 -28.2983 75.7776 24.9035 -0.0590878 0.139728 -0.531836 -0.0589472 0.173287 -0.521867 -0.0605095 0.279609 -0.473491 -0.0607655 0.201322 -0.511707 3.72174 2.9765 4.12698 3.76325 1.59961 4.8299 -0.0 0.0 -0.0 12.0395 -19.3886 24.0667 -0.476482 -40.8634 45.4546 2.08317 -45.895 0.882082 8.00815 0.212554 -1.00004 -3.00934 -25.3391 -31.5356 -0.0 0.0 -0.0 10.402 -20.925 -17.937 -41.0153 20.8499 -51.3888 0.37124 10.4206 -0.0338528 -5.81301 0.240723 -0.702701 0.0736214 1.8603 0.292067 0.0 0.0 0.0 -7.79568 2.91051 2.97639 -10.847 0.292433 1.63649 8.44976 28.4921 -1.28893 34.154 -0.0 -0.0 -0.0 0.0 -0.0 34.3034 -15.7871 7.62048 -10.3313 -0.285585 -1.55765 -8.21305 1.34486 -1.24017 7.54952 -0.0 -0.0 0.0 0.0 0.0 
3272.37 705.19 -622.422 -34.817 75.3117 30.0928 -0.00822334 0.0446395 -0.46163 -0.00810777 0.0739235 -0.457854 -0.00866444 0.168572 -0.432064 -0.00891163 0.0982204 -0.453264 4.36411 3.79502 4.97429 4.4234 2.21784 5.85394 -0.0 0.0 -0.0 12.1727 -19.3156 24.3777 -1.54843 -35.7687 46.1214 2.37522 -49.6316 1.09843 6.90224 0.191555 -0.860336 -3.16333 -25.7915 -32.8397 -0.0 0.0 -0.0 10.5728 -18.8071 -18.6014 -38.4841 19.8754 -50.867 0.450155 12.5711 -0.0495831 -5.23996 0.213833 -0.634539 0.0980813 3.03557 0.62464 0.0 0.0 0.0 -6.829 2.60318 3.84972 -11.0197 0.294569 1.66291 3.22935 27.5448 -0.496533 34.2988 -0.0 -0.0 -0.0 0.0 -0.0 35.6141 -14.5482 8.62202 -10.5689 -0.288828 -1.59396 -8.60991 1.57597 -1.30184 8.85529 -0.0 -0.0 0.0 0.0 0.0 
3258.33 709.065 -633.604 -34.1479 74.4507 28.5921 -0.0312216 0.142533 -0.446885 -0.0311265 0.17068 -0.43691 -0.032424 0.258923 -0.391129 -0.0325855 0.193903 -0.427111 4.5581 3.28361 4.68581 4.61101 1.56932 5.50482 -0.0 0.0 -0.0 12.3039 -19.9551 24.636 -4.10978 -34.1893 45.9274 2.25648 -48.1769 1.00893 5.68167 0.165253 -0.70664 -2.80386 -22.8429 -29.1255 -0.0 0.0 -0.0 10.9096 -17.8683 -19.3368 -36.4201 19.0937 -49.4485 0.508595 14.1412 -0.0630839 -5.39337 0.220965 -0.652813 -0.0535492 2.13893 1.26321 0.0 0.0 0.0 -6.48969 2.34246 4.32099 -11.2121 0.296854 1.69234 -3.55586 28.7853 0.558978 33.636 -0.0 -0.0 -0.0 0.0 -0.0 35.9095 -14.8396 8.84754 -11.3584 -0.298525 -1.71472 -8.60462 1.04609 -1.29891 9.25814 -0.0 -0.0 0.0 0.0 0.0 
3235.74 707.479 -640.649 -30.25 73.5048 24.0982 -0.242318 0.168713 -0.327997 -0.242278 0.189242 -0.316597 -0.243337 0.252702 -0.268678 -0.243378 0.207099 -0.305215 5.97628 4.76994 3.17538 6.01715 5.30375 3.86548 -0.0 0.0 -0.0 12.1272 -19.3484 24.2709 -5.90806 -29.8412 47.67 2.53122 -51.4187 1.21886 3.50908 0.110353 -0.434557 -2.61461 -26.835 -29.1557 -0.0 0.0 -0.0 10.3267 -16.3144 -18.6032 -35.1291 18.9584 -50.1441 0.618562 17.0361 -0.0926447 -4.99914 0.202737 -0.605816 0.363644 3.62225 -0.91359 0.0 0.0 0.0 -5.43173 1.7845 4.34114 -14.1998 0.319631 2.15013 -7.011 28.9723 1.10979 37.2295 -0.0 -0.0 -0.0 0.0 -0.0 37.1814 -14.0474 9.8274 -17.6189 -0.316382 -2.67463 -4.11485 2.5582 -0.619177 13.8096 -0.0 -0.0 0.0 0.0 0.0 
3210.3 710.234 -648.61 -26.7559 71.2448 20.2633 -0.358008 0.18611 -0.320223 -0.357974 0.206109 -0.307731 -0.3591 0.267795 -0.255863 -0.359121 0.224025 -0.294945 5.27431 3.64506 1.4338 5.30108 4.97841 1.81597 -0.0 0.0 -0.0 11.6486 -16.1655 23.3503 -9.17599 -29.8073 48.2593 2.51627 -51.2532 1.20718 2.90659 0.0933031 -0.359485 -2.53074 -24.1119 -27.5918 -0.0 0.0 -0.0 10.5344 -13.9717 -19.3252 -33.9233 18.8545 -49.0106 0.628322 17.289 -0.095525 -4.26914 0.169842 -0.518473 -0.148427 1.05461 1.43891 0.0 0.0 0.0 -3.38627 2.15404 4.93529 -19.6229 0.299934 2.98166 -9.45716 29.386 1.5062 35.0796 -0.0 -0.0 -0.0 0.0 -0.0 36.6496 -14.2143 9.50121 -18.6345 -0.30939 -2.83029 -3.25262 2.62221 -0.488657 15.8578 -0.0 -0.0 0.0 0.0 0.0 
3194.28 708.557 -655.782 -23.2391 70.3539 17.4869 -0.502703 0.176569 -0.483319 -0.502597 0.206966 -0.471105 -0.504296 0.305024 -0.414409 -0.504458 0.235749 -0.457381 4.87442 4.23539 0.717313 4.92182 6.64472 1.03365 -0.0 0.0 -0.0 11.0025 -16.8173 21.8542 -8.38124 -25.6801 52.3813 2.32454 -49.0211 1.05999 1.99853 0.0661165 -0.246683 -2.4426 -23.2635 -26.6438 -0.0 0.0 -0.0 10.2252 -11.8564 -19.0551 -32.7793 18.4539 -49.0257 0.779572 21.1154 -0.145299 -2.69941 0.102899 -0.329298 0.197588 0.94499 -0.923801 0.0 0.0 0.0 -1.45666 -0.0661832 5.10681 -24.826 0.207228 3.77441 -11.6637 30.3913 1.87525 36.7691 -0.0 -0.0 -0.0 0.0 -0.0 36.1439 -11.548 8.57634 -23.0321 -0.247322 -3.50206 -0.729008 2.63758 -0.108897 18.2097 -0.0 -0.0 0.0 0.0 0.0 
3169.38 708.139 -663.909 -22.2077 69.9694 16.1736 -0.445656 0.247401 -0.343487 -0.445631 0.268756 -0.327049 -0.447202 0.333539 -0.260658 -0.447181 0.288187 -0.310063 6.51246 4.18158 -0.584074 6.59467 7.59689 -0.536509 -0.0 0.0 -0.0 11.1902 -11.8107 22.4431 -11.9336 -27.6139 52.27 1.94147 -43.8783 0.782071 0.834836 0.0286658 -0.102768 -2.3457 -24.6766 -26.4649 -0.0 0.0 -0.0 10.4668 -10.7202 -19.646 -30.8235 18.6827 -48.6334 0.709477 19.3643 -0.121047 -2.11867 0.0794513 -0.258864 -0.252363 1.24903 2.21805 0.0 0.0 0.0 -0.477745 1.97306 4.92281 -28.3258 0.104542 4.30163 -11.3936 29.2448 1.81717 36.767 -0.0 -0.0 -0.0 0.0 -0.0 36.5436 -13.2637 10.2671 -26.6035 -0.159103 -4.04294 0.620335 4.42978 0.0929623 20.1084 -0.0 -0.0 0.0 0.0 0.0 
3155.82 706.774 -669.183 -20.2512 69.2425 14.2546 -0.436213 0.297666 -0.246049 -0.436233 0.31272 -0.226609 -0.437524 0.354543 -0.153115 -0.437408 0.325912 -0.207187 7.19009 3.99191 -1.85665 7.31661 8.37581 -2.07315 -0.0 0.0 -0.0 11.5458 -11.9179 23.2407 -15.3871 -26.4126 51.6526 1.749 -40.9021 0.652265 -0.0716521 -0.00252999 0.00880104 -2.23845 -24.7343 -25.7208 -0.0 0.0 -0.0 10.5131 -8.35367 -20.0146 -29.6501 18.7971 -47.7551 0.734623 19.997 -0.129516 -1.15629 0.0421735 -0.141638 -0.345528 1.11932 2.78709 0.0 0.0 0.0 1.03814 1.77522 5.27039 -31.242 -0.00550641 4.73559 -11.552 28.4241 1.83312 37.6313 -0.0 -0.0 -0.0 0.0 -0.0 36.5373 -13.3412 10.827 -29.2874 -0.0707019 -4.44532 1.67264 4.7931 0.25032 21.1298 -0.0 -0.0 0.0 0.0 0.0 
